<mxfile host="65bd71144e" modified="2020-11-02T01:05:33.455Z" agent="5.0 (X11; Linux x86_64) AppleWebKit/537.36 (KHTML, like Gecko) Code/1.50.1 Chrome/83.0.4103.122 Electron/9.2.1 Safari/537.36" etag="WvCJgEVhESsCroe93Y84" version="13.6.5">
    <diagram id="6U_Q08PsCXXGHNxIDvsR" name="Page-1">
        <mxGraphModel dx="1102" dy="650" grid="1" gridSize="10" guides="1" tooltips="1" connect="1" arrows="1" fold="1" page="1" pageScale="1" pageWidth="850" pageHeight="1100" math="0" shadow="0">
            <root>
                <mxCell id="0"/>
                <mxCell id="1" parent="0"/>
                <mxCell id="xWhvd2L2u2MGObdru3Tf-1" value="&lt;div&gt;Model: manages data, logic, and rules&lt;br&gt;&lt;/div&gt;&lt;div align=&quot;left&quot;&gt;&lt;ul&gt;&lt;li&gt;Unity 3D&lt;br&gt;&lt;/li&gt;&lt;li&gt;ARFoundation&lt;/li&gt;&lt;li&gt;ARCore&lt;/li&gt;&lt;li&gt;Scriptable Objects&lt;/li&gt;&lt;li&gt;Prefabs&lt;/li&gt;&lt;li&gt;Scripts&lt;/li&gt;&lt;/ul&gt;&lt;/div&gt;" style="rounded=0;whiteSpace=wrap;html=1;" parent="1" vertex="1">
                    <mxGeometry x="310" y="80" width="220" height="160" as="geometry"/>
                </mxCell>
                <mxCell id="xWhvd2L2u2MGObdru3Tf-2" value="&lt;div&gt;View: visual representation of SolvAR&lt;br&gt;&lt;/div&gt;&lt;div align=&quot;left&quot;&gt;&lt;ul&gt;&lt;li&gt;AR Experience&lt;/li&gt;&lt;/ul&gt;&lt;/div&gt;&lt;div align=&quot;left&quot;&gt;&lt;ul&gt;&lt;li&gt;Blender models&lt;/li&gt;&lt;li&gt;UI&lt;br&gt;&lt;/li&gt;&lt;/ul&gt;&lt;/div&gt;" style="rounded=0;whiteSpace=wrap;html=1;" parent="1" vertex="1">
                    <mxGeometry x="30" y="330" width="220" height="120" as="geometry"/>
                </mxCell>
                <mxCell id="xWhvd2L2u2MGObdru3Tf-3" value="User" style="rounded=0;whiteSpace=wrap;html=1;" parent="1" vertex="1">
                    <mxGeometry x="380" y="570" width="120" height="60" as="geometry"/>
                </mxCell>
                <mxCell id="xWhvd2L2u2MGObdru3Tf-4" value="&lt;div&gt;Controller: input from user&lt;br&gt;&lt;/div&gt;&lt;div&gt;&lt;ul&gt;&lt;li&gt;mobile device: camera, phone sensors&lt;/li&gt;&lt;li&gt;information about objects: name, description, selected model, etc for each unique object&lt;br&gt;&lt;/li&gt;&lt;/ul&gt;&lt;/div&gt;" style="rounded=0;whiteSpace=wrap;html=1;" parent="1" vertex="1">
                    <mxGeometry x="570" y="330" width="240" height="120" as="geometry"/>
                </mxCell>
                <mxCell id="xWhvd2L2u2MGObdru3Tf-5" value="" style="endArrow=classic;html=1;entryX=1;entryY=0;entryDx=0;entryDy=0;exitX=0;exitY=1;exitDx=0;exitDy=0;" parent="1" source="xWhvd2L2u2MGObdru3Tf-1" target="xWhvd2L2u2MGObdru3Tf-2" edge="1">
                    <mxGeometry width="50" height="50" relative="1" as="geometry">
                        <mxPoint x="400" y="430" as="sourcePoint"/>
                        <mxPoint x="450" y="380" as="targetPoint"/>
                    </mxGeometry>
                </mxCell>
                <mxCell id="xWhvd2L2u2MGObdru3Tf-6" value="" style="endArrow=classic;html=1;exitX=0;exitY=0;exitDx=0;exitDy=0;entryX=1;entryY=1;entryDx=0;entryDy=0;" parent="1" source="xWhvd2L2u2MGObdru3Tf-4" target="xWhvd2L2u2MGObdru3Tf-1" edge="1">
                    <mxGeometry width="50" height="50" relative="1" as="geometry">
                        <mxPoint x="400" y="430" as="sourcePoint"/>
                        <mxPoint x="450" y="380" as="targetPoint"/>
                    </mxGeometry>
                </mxCell>
                <mxCell id="xWhvd2L2u2MGObdru3Tf-7" value="" style="endArrow=classic;html=1;exitX=1;exitY=1;exitDx=0;exitDy=0;entryX=0;entryY=0;entryDx=0;entryDy=0;" parent="1" source="xWhvd2L2u2MGObdru3Tf-2" target="xWhvd2L2u2MGObdru3Tf-3" edge="1">
                    <mxGeometry width="50" height="50" relative="1" as="geometry">
                        <mxPoint x="400" y="430" as="sourcePoint"/>
                        <mxPoint x="450" y="380" as="targetPoint"/>
                    </mxGeometry>
                </mxCell>
                <mxCell id="xWhvd2L2u2MGObdru3Tf-8" value="" style="endArrow=classic;html=1;exitX=1;exitY=0;exitDx=0;exitDy=0;entryX=0;entryY=1;entryDx=0;entryDy=0;" parent="1" source="xWhvd2L2u2MGObdru3Tf-3" target="xWhvd2L2u2MGObdru3Tf-4" edge="1">
                    <mxGeometry width="50" height="50" relative="1" as="geometry">
                        <mxPoint x="400" y="430" as="sourcePoint"/>
                        <mxPoint x="450" y="380" as="targetPoint"/>
                    </mxGeometry>
                </mxCell>
                <mxCell id="xWhvd2L2u2MGObdru3Tf-9" value="Updates." style="text;html=1;strokeColor=none;fillColor=none;align=center;verticalAlign=middle;whiteSpace=wrap;rounded=0;" parent="1" vertex="1">
                    <mxGeometry x="230" y="270" width="40" height="20" as="geometry"/>
                </mxCell>
                <mxCell id="xWhvd2L2u2MGObdru3Tf-11" value="Sees" style="text;html=1;strokeColor=none;fillColor=none;align=center;verticalAlign=middle;whiteSpace=wrap;rounded=0;fontColor=#FFFFFF;" parent="1" vertex="1">
                    <mxGeometry x="260" y="500" width="40" height="20" as="geometry"/>
                </mxCell>
                <mxCell id="xWhvd2L2u2MGObdru3Tf-12" value="Uses" style="text;html=1;strokeColor=none;fillColor=none;align=center;verticalAlign=middle;whiteSpace=wrap;rounded=0;fontColor=#FFFFFF;" parent="1" vertex="1">
                    <mxGeometry x="540" y="500" width="40" height="20" as="geometry"/>
                </mxCell>
                <mxCell id="xWhvd2L2u2MGObdru3Tf-13" value="Manipulates" style="text;html=1;strokeColor=none;fillColor=none;align=center;verticalAlign=middle;whiteSpace=wrap;rounded=0;fontColor=#FFFFFF;" parent="1" vertex="1">
                    <mxGeometry x="570" y="270" width="40" height="20" as="geometry"/>
                </mxCell>
            </root>
        </mxGraphModel>
    </diagram>
</mxfile>